<svg width="772" height="548" viewBox="0 0 772 548" fill="none" xmlns="http://www.w3.org/2000/svg">
<g id="undraw_Messaging_app_re_aytg 1">
<g id="hand">
<path id="Vector" d="M464.681 278.221C465.962 278.478 467.284 278.452 468.554 278.143C469.824 277.835 471.011 277.251 472.031 276.434C473.051 275.617 473.879 274.587 474.458 273.415C475.037 272.243 475.351 270.959 475.38 269.652L542.923 206.078L527.726 193.955L465.997 260.419C463.799 260.516 461.713 261.417 460.134 262.949C458.556 264.482 457.594 266.541 457.432 268.735C457.27 270.929 457.918 273.107 459.254 274.855C460.59 276.603 462.521 277.801 464.681 278.221Z" fill="#FFB7B7"/>
<path id="Vector_2" d="M533.352 216.355L520.212 200.955C519.838 200.517 519.563 200.003 519.406 199.449C519.248 198.895 519.212 198.313 519.299 197.744C519.387 197.175 519.596 196.631 519.913 196.15C520.229 195.669 520.646 195.261 521.134 194.956L538.241 184.246C540.494 182.346 543.408 181.417 546.345 181.662C549.282 181.908 552.001 183.308 553.907 185.555C555.814 187.802 556.751 190.714 556.514 193.651C556.277 196.589 554.885 199.312 552.643 201.225L539.422 216.388C539.043 216.822 538.575 217.169 538.05 217.406C537.525 217.643 536.956 217.764 536.38 217.761C535.804 217.758 535.235 217.631 534.713 217.388C534.19 217.145 533.726 216.793 533.352 216.355Z" fill="#CBCBCB"/>
<path id="Vector_3" d="M431.277 244.128L452.496 239.214C453.52 238.976 454.594 239.095 455.542 239.549C456.489 240.003 457.254 240.766 457.711 241.713L479.446 286.786C479.682 287.278 479.807 287.815 479.814 288.36C479.82 288.906 479.708 289.446 479.484 289.943C479.261 290.441 478.931 290.883 478.519 291.24C478.107 291.597 477.622 291.861 477.098 292.011L455.534 298.138C454.379 298.466 453.145 298.363 452.06 297.847C450.976 297.332 450.117 296.44 449.642 295.337L435.773 263.123L435.351 263.357L432.711 257.254L433.15 257.03C432.693 254.315 425.775 245.403 431.277 244.128Z" fill="#3F3D56"/>
<path id="Vector_4" d="M449.94 240.886C451.972 240.317 454.966 239.536 456.03 242.06L477.246 286.844C477.367 287.102 477.431 287.383 477.435 287.668C477.438 287.953 477.379 288.236 477.264 288.496C477.148 288.757 476.978 288.989 476.764 289.178C476.551 289.367 476.299 289.508 476.026 289.591L454.614 296.052C451.028 300.141 432.863 248.427 431.439 247.889C431.31 247.586 431.249 247.259 431.26 246.93C431.271 246.602 431.354 246.279 431.503 245.986C431.651 245.693 431.862 245.435 432.121 245.232C432.379 245.029 432.679 244.884 432.999 244.809C433.888 244.812 435.978 243.581 436.525 244.799C436.509 246.257 448.132 242.53 448.718 242.687C449.111 242.596 449.455 242.36 449.682 242.026C449.908 241.692 450 241.285 449.94 240.886Z" fill="#6C63FF"/>
</g>
<g id="mainthings">
<path id="Vector_5" d="M498.016 530.057L481.502 530.056L473.646 466.358L498.019 466.359L498.016 530.057Z" fill="#FFB7B7"/>
<path id="Vector_6" d="M502.228 546.065L448.979 546.063V545.389C448.979 539.893 451.163 534.621 455.05 530.734C458.937 526.848 464.208 524.664 469.705 524.664H469.706L502.229 524.665L502.228 546.065Z" fill="#2F2E41"/>
<path id="Vector_7" d="M630.025 530.057L613.511 530.056L605.654 466.358L630.028 466.359L630.025 530.057Z" fill="#FFB7B7"/>
<path id="Vector_8" d="M634.236 546.065L580.987 546.063V545.389C580.988 539.893 583.172 534.621 587.058 530.734C590.945 526.848 596.217 524.664 601.714 524.664H601.715L634.237 524.665L634.236 546.065Z" fill="#2F2E41"/>
<path id="Vector_9" d="M585.604 250.12L602.25 188.618L580.655 176.479H550.512L538.787 189.022C538.787 189.022 519.2 202.651 523.941 217.75L531.589 252.143L519.892 306.767L460.955 388.5L447.003 468.784L501.922 483.181L561.309 366.246L590.103 495.724L643.669 493.03L625.211 336.038C625.211 336.038 619.949 288.212 592.368 258.351L585.604 250.12Z" fill="#2F2E41"/>
<path id="Vector_10" d="M619.982 304.537C620.91 303.617 621.625 302.505 622.077 301.278C622.529 300.052 622.707 298.742 622.598 297.439C622.489 296.137 622.095 294.874 621.445 293.741C620.796 292.607 619.905 291.629 618.836 290.877L605.92 203.741L587.382 209.595L605.939 293.516C604.794 295.395 604.378 297.628 604.77 299.794C605.162 301.959 606.335 303.905 608.066 305.263C609.796 306.622 611.965 307.298 614.162 307.164C616.358 307.03 618.429 306.095 619.982 304.536V304.537Z" fill="#FFB7B7"/>
<path id="Vector_11" d="M609.112 217.417L589.002 219.736C588.429 219.802 587.85 219.743 587.302 219.565C586.754 219.387 586.251 219.093 585.828 218.702C585.404 218.312 585.069 217.835 584.846 217.304C584.624 216.773 584.518 216.2 584.536 215.625L585.188 195.452C584.867 192.523 585.721 189.585 587.562 187.284C589.403 184.983 592.082 183.506 595.011 183.177C597.939 182.849 600.879 183.694 603.185 185.529C605.491 187.365 606.975 190.039 607.312 192.967L612.525 212.397C612.674 212.954 612.702 213.536 612.605 214.104C612.509 214.672 612.292 215.212 611.968 215.688C611.644 216.165 611.222 216.566 610.729 216.864C610.236 217.162 609.685 217.351 609.112 217.417V217.417Z" fill="#CBCBCB"/>
<path id="Vector_12" d="M531.874 158.989V133.076C531.874 123.866 535.532 115.034 542.044 108.522C548.557 102.01 557.389 98.3516 566.598 98.3516C575.807 98.3516 584.64 102.01 591.152 108.522C597.664 115.034 601.322 123.866 601.322 133.076V158.989C601.321 160.226 600.829 161.411 599.954 162.286C599.08 163.16 597.894 163.652 596.658 163.653H536.539C535.302 163.652 534.116 163.16 533.242 162.286C532.367 161.411 531.875 160.226 531.874 158.989Z" fill="#2F2E41"/>
<path id="Vector_13" d="M559.463 163.05C573.523 163.05 584.921 151.652 584.921 137.592C584.921 123.531 573.523 112.133 559.463 112.133C545.402 112.133 534.004 123.531 534.004 137.592C534.004 151.652 545.402 163.05 559.463 163.05Z" fill="#FFB7B7"/>
<path id="Vector_14" d="M523.659 135.149C523.667 127.866 526.564 120.884 531.714 115.735C536.863 110.585 543.845 107.689 551.127 107.68H556.31C563.593 107.689 570.575 110.585 575.724 115.735C580.874 120.884 583.77 127.866 583.778 135.149V135.667H572.826L569.09 125.206L568.343 135.667H562.682L560.798 130.389L560.421 135.667H523.659V135.149Z" fill="#2F2E41"/>
<path id="Vector_15" d="M556.957 166.567C556.443 165.871 556.136 165.044 556.071 164.181C556.007 163.317 556.187 162.454 556.592 161.688C562.084 151.242 569.774 131.94 559.567 120.036L558.833 119.18H588.465V163.668L561.547 168.418C561.274 168.466 560.998 168.49 560.721 168.491C559.987 168.491 559.262 168.316 558.608 167.982C557.954 167.648 557.388 167.163 556.957 166.567Z" fill="#2F2E41"/>
<path id="Vector_16" d="M689.211 547H388.789C388.579 547 388.379 546.895 388.231 546.707C388.083 546.52 388 546.265 388 546C388 545.735 388.083 545.48 388.231 545.293C388.379 545.105 388.579 545 388.789 545H689.211C689.421 545 689.621 545.105 689.769 545.293C689.917 545.48 690 545.735 690 546C690 546.265 689.917 546.52 689.769 546.707C689.621 546.895 689.421 547 689.211 547Z" fill="#CBCBCB"/>
<path id="Vector_17" d="M2 2H440.973V146.107H424.345V183.797L386.656 146.107H2V2Z" fill="white"/>
<path id="Vector_18" d="M426.345 188.626L385.827 148.107H0V-3.8147e-06H442.973V148.107H426.345V188.626ZM4 144.107H387.484L422.345 178.969V144.107H438.973V4H4V144.107Z" fill="#E5E5E5"/>
</g>
<path id="Text" d="M73.8047 85.4688C70.3672 85.4688 67.5703 84.3438 65.4141 82.0938C63.2578 79.8281 62.1797 76.8047 62.1797 73.0234V72.2266C62.1797 69.7109 62.6562 67.4688 63.6094 65.5C64.5781 63.5156 65.9219 61.9688 67.6406 60.8594C69.375 59.7344 71.25 59.1719 73.2656 59.1719C76.5625 59.1719 79.125 60.2578 80.9531 62.4297C82.7812 64.6016 83.6953 67.7109 83.6953 71.7578V73.5625H66.5156C66.5781 76.0625 67.3047 78.0859 68.6953 79.6328C70.1016 81.1641 71.8828 81.9297 74.0391 81.9297C75.5703 81.9297 76.8672 81.6172 77.9297 80.9922C78.9922 80.3672 79.9219 79.5391 80.7188 78.5078L83.3672 80.5703C81.2422 83.8359 78.0547 85.4688 73.8047 85.4688ZM73.2656 62.7344C71.5156 62.7344 70.0469 63.375 68.8594 64.6562C67.6719 65.9219 66.9375 67.7031 66.6562 70H79.3594V69.6719C79.2344 67.4688 78.6406 65.7656 77.5781 64.5625C76.5156 63.3438 75.0781 62.7344 73.2656 62.7344ZM104.391 85C104.141 84.5 103.938 83.6094 103.781 82.3281C101.766 84.4219 99.3594 85.4688 96.5625 85.4688C94.0625 85.4688 92.0078 84.7656 90.3984 83.3594C88.8047 81.9375 88.0078 80.1406 88.0078 77.9688C88.0078 75.3281 89.0078 73.2812 91.0078 71.8281C93.0234 70.3594 95.8516 69.625 99.4922 69.625H103.711V67.6328C103.711 66.1172 103.258 64.9141 102.352 64.0234C101.445 63.1172 100.109 62.6641 98.3438 62.6641C96.7969 62.6641 95.5 63.0547 94.4531 63.8359C93.4062 64.6172 92.8828 65.5625 92.8828 66.6719H88.5234C88.5234 65.4062 88.9688 64.1875 89.8594 63.0156C90.7656 61.8281 91.9844 60.8906 93.5156 60.2031C95.0625 59.5156 96.7578 59.1719 98.6016 59.1719C101.523 59.1719 103.812 59.9062 105.469 61.375C107.125 62.8281 107.984 64.8359 108.047 67.3984V79.0703C108.047 81.3984 108.344 83.25 108.938 84.625V85H104.391ZM97.1953 81.6953C98.5547 81.6953 99.8438 81.3438 101.062 80.6406C102.281 79.9375 103.164 79.0234 103.711 77.8984V72.6953H100.312C95 72.6953 92.3438 74.25 92.3438 77.3594C92.3438 78.7188 92.7969 79.7812 93.7031 80.5469C94.6094 81.3125 95.7734 81.6953 97.1953 81.6953ZM129.609 78.2734C129.609 77.1016 129.164 76.1953 128.273 75.5547C127.398 74.8984 125.859 74.3359 123.656 73.8672C121.469 73.3984 119.727 72.8359 118.43 72.1797C117.148 71.5234 116.195 70.7422 115.57 69.8359C114.961 68.9297 114.656 67.8516 114.656 66.6016C114.656 64.5234 115.531 62.7656 117.281 61.3281C119.047 59.8906 121.297 59.1719 124.031 59.1719C126.906 59.1719 129.234 59.9141 131.016 61.3984C132.812 62.8828 133.711 64.7812 133.711 67.0938H129.352C129.352 65.9062 128.844 64.8828 127.828 64.0234C126.828 63.1641 125.562 62.7344 124.031 62.7344C122.453 62.7344 121.219 63.0781 120.328 63.7656C119.438 64.4531 118.992 65.3516 118.992 66.4609C118.992 67.5078 119.406 68.2969 120.234 68.8281C121.062 69.3594 122.555 69.8672 124.711 70.3516C126.883 70.8359 128.641 71.4141 129.984 72.0859C131.328 72.7578 132.32 73.5703 132.961 74.5234C133.617 75.4609 133.945 76.6094 133.945 77.9688C133.945 80.2344 133.039 82.0547 131.227 83.4297C129.414 84.7891 127.062 85.4688 124.172 85.4688C122.141 85.4688 120.344 85.1094 118.781 84.3906C117.219 83.6719 115.992 82.6719 115.102 81.3906C114.227 80.0938 113.789 78.6953 113.789 77.1953H118.125C118.203 78.6484 118.781 79.8047 119.859 80.6641C120.953 81.5078 122.391 81.9297 124.172 81.9297C125.812 81.9297 127.125 81.6016 128.109 80.9453C129.109 80.2734 129.609 79.3828 129.609 78.2734ZM147.891 78.6484L153.797 59.6406H158.438L148.242 88.9141C146.664 93.1328 144.156 95.2422 140.719 95.2422L139.898 95.1719L138.281 94.8672V91.3516L139.453 91.4453C140.922 91.4453 142.062 91.1484 142.875 90.5547C143.703 89.9609 144.383 88.875 144.914 87.2969L145.875 84.7188L136.828 59.6406H141.562L147.891 78.6484ZM189.891 85C189.641 84.5 189.438 83.6094 189.281 82.3281C187.266 84.4219 184.859 85.4688 182.062 85.4688C179.562 85.4688 177.508 84.7656 175.898 83.3594C174.305 81.9375 173.508 80.1406 173.508 77.9688C173.508 75.3281 174.508 73.2812 176.508 71.8281C178.523 70.3594 181.352 69.625 184.992 69.625H189.211V67.6328C189.211 66.1172 188.758 64.9141 187.852 64.0234C186.945 63.1172 185.609 62.6641 183.844 62.6641C182.297 62.6641 181 63.0547 179.953 63.8359C178.906 64.6172 178.383 65.5625 178.383 66.6719H174.023C174.023 65.4062 174.469 64.1875 175.359 63.0156C176.266 61.8281 177.484 60.8906 179.016 60.2031C180.562 59.5156 182.258 59.1719 184.102 59.1719C187.023 59.1719 189.312 59.9062 190.969 61.375C192.625 62.8281 193.484 64.8359 193.547 67.3984V79.0703C193.547 81.3984 193.844 83.25 194.438 84.625V85H189.891ZM182.695 81.6953C184.055 81.6953 185.344 81.3438 186.562 80.6406C187.781 79.9375 188.664 79.0234 189.211 77.8984V72.6953H185.812C180.5 72.6953 177.844 74.25 177.844 77.3594C177.844 78.7188 178.297 79.7812 179.203 80.5469C180.109 81.3125 181.273 81.6953 182.695 81.6953ZM204.445 59.6406L204.586 62.8281C206.523 60.3906 209.055 59.1719 212.18 59.1719C217.539 59.1719 220.242 62.1953 220.289 68.2422V85H215.953V68.2188C215.938 66.3906 215.516 65.0391 214.688 64.1641C213.875 63.2891 212.602 62.8516 210.867 62.8516C209.461 62.8516 208.227 63.2266 207.164 63.9766C206.102 64.7266 205.273 65.7109 204.68 66.9297V85H200.344V59.6406H204.445ZM225.773 72.1094C225.773 68.2188 226.695 65.0938 228.539 62.7344C230.383 60.3594 232.797 59.1719 235.781 59.1719C238.75 59.1719 241.102 60.1875 242.836 62.2188V49H247.172V85H243.188L242.977 82.2812C241.242 84.4062 238.828 85.4688 235.734 85.4688C232.797 85.4688 230.398 84.2656 228.539 81.8594C226.695 79.4531 225.773 76.3125 225.773 72.4375V72.1094ZM230.109 72.6016C230.109 75.4766 230.703 77.7266 231.891 79.3516C233.078 80.9766 234.719 81.7891 236.812 81.7891C239.562 81.7891 241.57 80.5547 242.836 78.0859V66.4375C241.539 64.0469 239.547 62.8516 236.859 62.8516C234.734 62.8516 233.078 63.6719 231.891 65.3125C230.703 66.9531 230.109 69.3828 230.109 72.6016ZM264.797 72.1094C264.797 68.1562 265.711 65.0156 267.539 62.6875C269.367 60.3438 271.789 59.1719 274.805 59.1719C277.898 59.1719 280.312 60.2656 282.047 62.4531L282.258 59.6406H286.219V84.3906C286.219 87.6719 285.242 90.2578 283.289 92.1484C281.352 94.0391 278.742 94.9844 275.461 94.9844C273.633 94.9844 271.844 94.5938 270.094 93.8125C268.344 93.0312 267.008 91.9609 266.086 90.6016L268.336 88C270.195 90.2969 272.469 91.4453 275.156 91.4453C277.266 91.4453 278.906 90.8516 280.078 89.6641C281.266 88.4766 281.859 86.8047 281.859 84.6484V82.4688C280.125 84.4688 277.758 85.4688 274.758 85.4688C271.789 85.4688 269.383 84.2734 267.539 81.8828C265.711 79.4922 264.797 76.2344 264.797 72.1094ZM269.156 72.6016C269.156 75.4609 269.742 77.7109 270.914 79.3516C272.086 80.9766 273.727 81.7891 275.836 81.7891C278.57 81.7891 280.578 80.5469 281.859 78.0625V66.4844C280.531 64.0625 278.539 62.8516 275.883 62.8516C273.773 62.8516 272.125 63.6719 270.938 65.3125C269.75 66.9531 269.156 69.3828 269.156 72.6016ZM305.039 63.5312C304.383 63.4219 303.672 63.3672 302.906 63.3672C300.062 63.3672 298.133 64.5781 297.117 67V85H292.781V59.6406H297L297.07 62.5703C298.492 60.3047 300.508 59.1719 303.117 59.1719C303.961 59.1719 304.602 59.2812 305.039 59.5V63.5312ZM319.102 85.4688C315.664 85.4688 312.867 84.3438 310.711 82.0938C308.555 79.8281 307.477 76.8047 307.477 73.0234V72.2266C307.477 69.7109 307.953 67.4688 308.906 65.5C309.875 63.5156 311.219 61.9688 312.938 60.8594C314.672 59.7344 316.547 59.1719 318.562 59.1719C321.859 59.1719 324.422 60.2578 326.25 62.4297C328.078 64.6016 328.992 67.7109 328.992 71.7578V73.5625H311.812C311.875 76.0625 312.602 78.0859 313.992 79.6328C315.398 81.1641 317.18 81.9297 319.336 81.9297C320.867 81.9297 322.164 81.6172 323.227 80.9922C324.289 80.3672 325.219 79.5391 326.016 78.5078L328.664 80.5703C326.539 83.8359 323.352 85.4688 319.102 85.4688ZM318.562 62.7344C316.812 62.7344 315.344 63.375 314.156 64.6562C312.969 65.9219 312.234 67.7031 311.953 70H324.656V69.6719C324.531 67.4688 323.938 65.7656 322.875 64.5625C321.812 63.3438 320.375 62.7344 318.562 62.7344ZM349.688 85C349.438 84.5 349.234 83.6094 349.078 82.3281C347.062 84.4219 344.656 85.4688 341.859 85.4688C339.359 85.4688 337.305 84.7656 335.695 83.3594C334.102 81.9375 333.305 80.1406 333.305 77.9688C333.305 75.3281 334.305 73.2812 336.305 71.8281C338.32 70.3594 341.148 69.625 344.789 69.625H349.008V67.6328C349.008 66.1172 348.555 64.9141 347.648 64.0234C346.742 63.1172 345.406 62.6641 343.641 62.6641C342.094 62.6641 340.797 63.0547 339.75 63.8359C338.703 64.6172 338.18 65.5625 338.18 66.6719H333.82C333.82 65.4062 334.266 64.1875 335.156 63.0156C336.062 61.8281 337.281 60.8906 338.812 60.2031C340.359 59.5156 342.055 59.1719 343.898 59.1719C346.82 59.1719 349.109 59.9062 350.766 61.375C352.422 62.8281 353.281 64.8359 353.344 67.3984V79.0703C353.344 81.3984 353.641 83.25 354.234 84.625V85H349.688ZM342.492 81.6953C343.852 81.6953 345.141 81.3438 346.359 80.6406C347.578 79.9375 348.461 79.0234 349.008 77.8984V72.6953H345.609C340.297 72.6953 337.641 74.25 337.641 77.3594C337.641 78.7188 338.094 79.7812 339 80.5469C339.906 81.3125 341.07 81.6953 342.492 81.6953ZM366.023 53.5V59.6406H370.758V62.9922H366.023V78.7188C366.023 79.7344 366.234 80.5 366.656 81.0156C367.078 81.5156 367.797 81.7656 368.812 81.7656C369.312 81.7656 370 81.6719 370.875 81.4844V85C369.734 85.3125 368.625 85.4688 367.547 85.4688C365.609 85.4688 364.148 84.8828 363.164 83.7109C362.18 82.5391 361.688 80.875 361.688 78.7188V62.9922H357.07V59.6406H361.688V53.5H366.023Z" fill="black"/>
</g>
</svg>
